<?xml version="1.0" encoding="UTF-8"?>
<svg width="377px" height="50px" viewBox="0 0 377 50" version="1.1" xmlns="http://www.w3.org/2000/svg" xmlns:xlink="http://www.w3.org/1999/xlink">
    <title>PRIMEDESIGNER</title>
    <g id="Page-1" stroke="none" stroke-width="1" fill="none" fill-rule="evenodd">
        <g id="PRIMEDESIGNER" fill-rule="nonzero">
            <path d="M7.54,50 C8.222,50 8.532,49.628 8.532,49.008 L8.532,33.384 L15.972,33.384 C21.8,33.384 24.9,30.222 24.9,24.456 L24.9,9.328 C24.9,3.5 21.8,0.4 15.972,0.4 L1.092,0.4 C0.472,0.4 0.1,0.772 0.1,1.392 L0.1,49.008 C0.1,49.628 0.472,50 1.092,50 L7.54,50 Z M13.988,25.2 L8.532,25.2 L8.532,8.584 L13.988,8.584 C15.662,8.584 16.468,9.452 16.468,11.064 L16.468,22.72 C16.468,24.27 15.662,25.2 13.988,25.2 Z M37.92,50 C38.54,50 38.912,49.628 38.912,49.008 L38.912,33.384 L43.19,33.384 L47.344,49.132 C47.468,49.69 47.778,50 48.398,50 L54.846,50 C55.528,50 55.9,49.628 55.714,48.884 L51.436,32.64 C54.412,31.338 55.962,28.61 55.962,24.456 L55.962,9.328 C55.962,3.5 52.862,0.4 47.034,0.4 L31.472,0.4 C30.852,0.4 30.48,0.772 30.48,1.392 L30.48,49.008 C30.48,49.628 30.852,50 31.472,50 L37.92,50 Z M45.05,25.2 L38.912,25.2 L38.912,8.584 L45.05,8.584 C46.662,8.584 47.53,9.452 47.53,11.064 L47.53,22.72 C47.53,24.332 46.662,25.2 45.05,25.2 Z M69.602,50 C70.222,50 70.594,49.628 70.594,49.008 L70.594,1.392 C70.594,0.772 70.222,0.4 69.602,0.4 L63.154,0.4 C62.472,0.4 62.162,0.772 62.162,1.392 L62.162,49.008 C62.162,49.628 62.472,50 63.154,50 L69.602,50 Z M83.738,50 C84.544,50 84.978,49.566 84.978,48.76 L84.978,20.86 L85.412,20.86 L91.55,48.884 C91.736,49.628 92.17,50 92.914,50 L95.952,50 C96.696,50 97.13,49.628 97.316,48.884 L103.454,20.86 L103.888,20.86 L103.888,48.76 C103.888,49.566 104.322,50 105.128,50 L110.894,50 C111.7,50 112.134,49.566 112.134,48.76 L112.134,1.64 C112.134,0.834 111.7,0.4 110.894,0.4 L102.71,0.4 C101.966,0.4 101.532,0.772 101.346,1.516 L94.464,32.392 L87.582,1.516 C87.396,0.772 86.962,0.4 86.218,0.4 L78.034,0.4 C77.228,0.4 76.794,0.834 76.794,1.64 L76.794,48.76 C76.794,49.566 77.228,50 78.034,50 L83.738,50 Z M142.08,50 C142.824,50 143.072,49.628 143.072,49.008 L143.072,42.808 C143.072,42.126 142.824,41.816 142.08,41.816 L126.58,41.816 L126.58,29.292 L138.422,29.292 C139.042,29.292 139.414,28.92 139.414,28.238 L139.414,22.1 C139.414,21.418 139.042,21.046 138.422,21.046 L126.58,21.046 L126.58,8.646 L142.08,8.646 C142.824,8.646 143.072,8.212 143.072,7.592 L143.072,1.392 C143.072,0.772 142.824,0.4 142.08,0.4 L119.264,0.4 C118.706,0.4 118.334,0.772 118.334,1.392 L118.334,49.008 C118.334,49.628 118.706,50 119.264,50 L142.08,50 Z" id="PRIME" fill="#435B72"></path>
            <path d="M165.972,50 C171.8,50 174.9,46.9 174.9,41.072 L174.9,9.39 C174.9,3.562 171.8,0.4 165.972,0.4 L151.092,0.4 C150.41,0.4 150.1,0.772 150.1,1.392 L150.1,49.008 C150.1,49.69 150.41,50 151.092,50 L165.972,50 Z M164.236,41.816 L158.532,41.816 L158.532,8.584 L164.236,8.584 C165.848,8.584 166.716,9.452 166.716,11.126 L166.716,39.336 C166.716,41.01 165.848,41.816 164.236,41.816 Z M204.846,50 C205.59,50 205.838,49.628 205.838,49.008 L205.838,42.808 C205.838,42.126 205.59,41.816 204.846,41.816 L189.346,41.816 L189.346,29.292 L201.188,29.292 C201.808,29.292 202.18,28.92 202.18,28.238 L202.18,22.1 C202.18,21.418 201.808,21.046 201.188,21.046 L189.346,21.046 L189.346,8.646 L204.846,8.646 C205.59,8.646 205.838,8.212 205.838,7.592 L205.838,1.392 C205.838,0.772 205.59,0.4 204.846,0.4 L182.03,0.4 C181.472,0.4 181.1,0.772 181.1,1.392 L181.1,49.008 C181.1,49.628 181.472,50 182.03,50 L204.846,50 Z M226.05,50 C231.878,50 234.978,46.9 234.978,41.072 L234.978,26.75 C234.978,25.572 234.42,24.89 233.366,24.456 L218.61,19.62 L218.61,11.064 C218.61,9.452 219.54,8.584 221.09,8.584 L224.066,8.584 C225.74,8.584 226.546,9.452 226.546,11.064 L226.546,15.9 C226.546,16.52 226.918,16.892 227.538,16.892 L233.986,16.892 C234.668,16.892 234.978,16.52 234.978,15.9 L234.978,9.328 C234.978,3.5 231.878,0.4 226.05,0.4 L219.106,0.4 C213.34,0.4 210.178,3.5 210.178,9.328 L210.178,23.96 C210.178,25.138 210.736,25.882 211.852,26.254 L226.546,31.09 L226.546,39.336 C226.546,41.01 225.678,41.816 224.066,41.816 L221.09,41.816 C219.54,41.816 218.61,41.01 218.61,39.336 L218.61,34.562 C218.61,33.88 218.3,33.57 217.618,33.57 L211.17,33.57 C210.55,33.57 210.178,33.88 210.178,34.562 L210.178,41.072 C210.178,46.9 213.34,50 219.106,50 L226.05,50 Z M248.618,50 C249.238,50 249.61,49.628 249.61,49.008 L249.61,1.392 C249.61,0.772 249.238,0.4 248.618,0.4 L242.17,0.4 C241.488,0.4 241.178,0.772 241.178,1.392 L241.178,49.008 C241.178,49.628 241.488,50 242.17,50 L248.618,50 Z M272.922,50 C278.688,50 281.85,46.9 281.85,41.072 L281.85,23.836 C281.85,23.154 281.478,22.844 280.858,22.844 L270.442,22.844 C269.76,22.844 269.45,23.154 269.45,23.836 L269.45,30.036 C269.45,30.656 269.76,31.028 270.442,31.028 L273.666,31.028 L273.666,39.336 C273.666,41.01 272.798,41.816 271.186,41.816 L266.722,41.816 C265.11,41.816 264.242,41.01 264.242,39.336 L264.242,11.064 C264.242,9.452 265.048,8.584 266.722,8.584 L271.186,8.584 C272.798,8.584 273.666,9.452 273.666,11.064 L273.666,15.776 C273.666,16.396 273.976,16.768 274.658,16.768 L280.858,16.768 C281.478,16.768 281.85,16.396 281.85,15.776 L281.85,9.328 C281.85,3.5 278.688,0.4 272.922,0.4 L264.738,0.4 C258.91,0.4 255.81,3.5 255.81,9.328 L255.81,41.072 C255.81,46.9 258.91,50 264.738,50 L272.922,50 Z M295.49,50 C296.172,50 296.482,49.628 296.482,49.008 L296.482,22.72 L296.792,22.72 L306.278,49.194 C306.464,49.752 306.836,50 307.394,50 L313.532,50 C314.152,50 314.524,49.628 314.524,49.008 L314.524,1.392 C314.524,0.772 314.152,0.4 313.532,0.4 L307.084,0.4 C306.402,0.4 306.092,0.772 306.092,1.392 L306.092,27.556 L305.72,27.556 L296.296,1.206 C296.11,0.648 295.738,0.4 295.18,0.4 L289.042,0.4 C288.422,0.4 288.05,0.772 288.05,1.392 L288.05,49.008 C288.05,49.628 288.422,50 289.042,50 L295.49,50 Z M344.47,50 C345.214,50 345.462,49.628 345.462,49.008 L345.462,42.808 C345.462,42.126 345.214,41.816 344.47,41.816 L328.97,41.816 L328.97,29.292 L340.812,29.292 C341.432,29.292 341.804,28.92 341.804,28.238 L341.804,22.1 C341.804,21.418 341.432,21.046 340.812,21.046 L328.97,21.046 L328.97,8.646 L344.47,8.646 C345.214,8.646 345.462,8.212 345.462,7.592 L345.462,1.392 C345.462,0.772 345.214,0.4 344.47,0.4 L321.654,0.4 C321.096,0.4 320.724,0.772 320.724,1.392 L320.724,49.008 C320.724,49.628 321.096,50 321.654,50 L344.47,50 Z M358.482,50 C359.102,50 359.474,49.628 359.474,49.008 L359.474,33.384 L363.752,33.384 L367.906,49.132 C368.03,49.69 368.34,50 368.96,50 L375.408,50 C376.09,50 376.462,49.628 376.276,48.884 L371.998,32.64 C374.974,31.338 376.524,28.61 376.524,24.456 L376.524,9.328 C376.524,3.5 373.424,0.4 367.596,0.4 L352.034,0.4 C351.414,0.4 351.042,0.772 351.042,1.392 L351.042,49.008 C351.042,49.628 351.414,50 352.034,50 L358.482,50 Z M365.612,25.2 L359.474,25.2 L359.474,8.584 L365.612,8.584 C367.224,8.584 368.092,9.452 368.092,11.064 L368.092,22.72 C368.092,24.332 367.224,25.2 365.612,25.2 Z" id="DESIGNER" fill="#2194f3"></path>
        </g>
    </g>
</svg>